{"accessors" : [{"bufferView" : 0, "byteOffset" : 0, "componentType" : 5123, "count" : 167310, "type" : "SCALAR", "max" : [33419], "min" : [0]}, {"bufferView" : 1, "byteOffset" : 0, "componentType" : 5126, "count" : 33420, "type" : "VEC3", "max" : [0.9973739981651306, 0.7257289886474609, 0.6877430081367493], "min" : [-1.0037399530410767, -0.7259969711303711, -0.6931120157241821], "name" : "POSITION"}, {"bufferView" : 1, "byteOffset" : 12, "componentType" : 5126, "count" : 33420, "type" : "VEC3", "max" : [0.9999682903289795, 0.9999595880508423, 0.9999959468841553], "min" : [-0.9999715089797974, -1.0000029802322388, -0.9999927282333374], "name" : "NORMAL"}, {"bufferView" : 1, "byteOffset" : 24, "componentType" : 5126, "count" : 33420, "type" : "VEC2", "max" : [0.9990234375, 1.9990234375], "min" : [0.0007810592651367188, 1.0059928894042969], "name" : "TEXCOORD_0"}], "asset" : {"generator" : "Aspose.3D 24.9.1", "version" : "2.0"}, "buffers" : [{"uri" : "data:application/octet-stream;base64,", "byteLength" : 1404068}], "bufferViews" : [{"buffer" : 0, "byteOffset" : 0, "byteLength" : 334620, "target" : 34963}, {"buffer" : 0, "byteOffset" : 334624, "byteLength" : 1069440, "byteStride" : 32, "target" : 34962}], "images" : [{"uri" : "data:image/jpeg;base64,"}], "materials" : [{"pbrMetallicRoughness" : {"baseColorFactor" : [1, 1, 1, 1], "baseColorTexture" : {"index" : 0, "texCoord" : 0}, "metallicFactor" : 0, "roughnessFactor" : 0.8}, "emissiveFactor" : [0, 0, 0], "alphaMode" : "OPAQUE", "doubleSided" : true}], "meshes" : [{"primitives" : [{"attributes" : {"POSITION" : 1, "NORMAL" : 2, "TEXCOORD_0" : 3}, "indices" : 0, "material" : 0, "mode" : 4}]}], "nodes" : [{"mesh" : 0, "name" : "Node #0"}], "samplers" : [{"magFilter" : 9729, "minFilter" : 9987, "wrapS" : 10497, "wrapT" : 10497}], "scene" : 0, "scenes" : [{"nodes" : [0]}], "textures" : [{"sampler" : 0, "source" : 0, "name" : ""}]}