{
  "accessors": [
    {
      "bufferView": 2,
      "componentType": 5126,
      "count": 805,
      "max": [
        0.36433181166648865,
        0.2119939774274826,
        1.0823891162872314
      ],
      "min": [
        -0.36433181166648865,
        -0.2119939625263214,
        0.12567132711410522
      ],
      "type": "VEC3"
    },
    {
      "bufferView": 2,
      "byteOffset": 9660,
      "componentType": 5126,
      "count": 805,
      "max": [
        0.999434769153595,
        0.9998810887336731,
        0.997516393661499
      ],
      "min": [
        -0.9985893964767456,
        -0.9998810887336731,
        -0.9990332126617432
      ],
      "type": "VEC3"
    },
    {
      "bufferView": 1,
      "componentType": 5126,
      "count": 805,
      "max": [
        0.44558796286582947,
        0.9433092474937439
      ],
      "min": [
        0.016235845163464546,
        0.09700044989585876
      ],
      "type": "VEC2"
    },
    {
      "bufferView": 0,
      "componentType": 5125,
      "count": 3930,
      "type": "SCALAR"
    },
    {
      "bufferView": 2,
      "byteOffset": 19320,
      "componentType": 5126,
      "count": 2792,
      "max": [
        0.14371207356452942,
        0.046813637018203735,
        1.2665441036224365
      ],
      "min": [
        -0.143712118268013,
        -0.18247613310813904,
        0.3649646043777466
      ],
      "type": "VEC3"
    },
    {
      "bufferView": 2,
      "byteOffset": 52824,
      "componentType": 5126,
      "count": 2792,
      "max": [
        0.9999935626983643,
        0.9999570250511169,
        0.9899333715438843
      ],
      "min": [
        -0.9999979734420776,
        -0.9999570250511169,
        -0.9954482316970825
      ],
      "type": "VEC3"
    },
    {
      "bufferView": 1,
      "byteOffset": 6440,
      "componentType": 5126,
      "count": 2792,
      "max": [
        1.0,
        1.0
      ],
      "min": [
        -1.862645149230957e-07,
        0.0
      ],
      "type": "VEC2"
    },
    {
      "bufferView": 0,
      "byteOffset": 15720,
      "componentType": 5125,
      "count": 7920,
      "type": "SCALAR"
    },
    {
      "bufferView": 2,
      "byteOffset": 86328,
      "componentType": 5126,
      "count": 2292,
      "max": [
        0.22348281741142273,
        -0.11641868948936462,
        0.9875356554985046
      ],
      "min": [
        -0.19930244982242584,
        -0.21598045527935028,
        0.7663059234619141
      ],
      "type": "VEC3"
    },
    {
      "bufferView": 2,
      "byteOffset": 113832,
      "componentType": 5126,
      "count": 2292,
      "max": [
        0.9999623894691467,
        1.0,
        0.9998840689659119
      ],
      "min": [
        -0.9999511241912842,
        -1.0,
        -0.9997783303260803
      ],
      "type": "VEC3"
    },
    {
      "bufferView": 1,
      "byteOffset": 28776,
      "componentType": 5126,
      "count": 2292,
      "max": [
        1.0,
        1.0
      ],
      "min": [
        0.0,
        0.0
      ],
      "type": "VEC2"
    },
    {
      "bufferView": 0,
      "byteOffset": 47400,
      "componentType": 5125,
      "count": 7998,
      "type": "SCALAR"
    },
    {
      "bufferView": 2,
      "byteOffset": 141336,
      "componentType": 5126,
      "count": 128,
      "max": [
        0.1832001805305481,
        -0.20269477367401123,
        0.9598090052604675
      ],
      "min": [
        -0.15675324201583862,
        -0.20940986275672913,
        0.7859888076782227
      ],
      "type": "VEC3"
    },
    {
      "bufferView": 2,
      "byteOffset": 142872,
      "componentType": 5126,
      "count": 128,
      "max": [
        0.2520638704299927,
        -0.9659085869789124,
        0.24914801120758057
      ],
      "min": [
        -0.24745194613933563,
        -0.9918338060379028,
        -0.2561708688735962
      ],
      "type": "VEC3"
    },
    {
      "bufferView": 1,
      "byteOffset": 47112,
      "componentType": 5126,
      "count": 128,
      "max": [
        1.1785386800765991,
        1.077942132949829
      ],
      "min": [
        -0.18739238381385803,
        -0.07065802812576294
      ],
      "type": "VEC2"
    },
    {
      "bufferView": 0,
      "byteOffset": 79392,
      "componentType": 5125,
      "count": 564,
      "type": "SCALAR"
    },
    {
      "bufferView": 2,
      "byteOffset": 144408,
      "componentType": 5126,
      "count": 4658,
      "max": [
        0.3114914894104004,
        0.20616234838962555,
        0.9190816283226013
      ],
      "min": [
        -0.3114914894104004,
        -0.19539058208465576,
        1.710653305053711e-05
      ],
      "type": "VEC3"
    },
    {
      "bufferView": 2,
      "byteOffset": 200304,
      "componentType": 5126,
      "count": 4658,
      "max": [
        1.0,
        1.0,
        1.0
      ],
      "min": [
        -1.0,
        -1.0,
        -0.9996846914291382
      ],
      "type": "VEC3"
    },
    {
      "bufferView": 1,
      "byteOffset": 48136,
      "componentType": 5126,
      "count": 4658,
      "max": [
        1.0,
        1.0
      ],
      "min": [
        -0.008910301141440868,
        -7.373347216343973e-06
      ],
      "type": "VEC2"
    },
    {
      "bufferView": 0,
      "byteOffset": 81648,
      "componentType": 5125,
      "count": 18234,
      "type": "SCALAR"
    },
    {
      "bufferView": 2,
      "byteOffset": 256200,
      "componentType": 5126,
      "count": 1298,
      "max": [
        0.2303454726934433,
        0.2289620339870453,
        0.43928849697113037
      ],
      "min": [
        -0.23034550249576569,
        -0.2289620339870453,
        0.04639476537704468
      ],
      "type": "VEC3"
    },
    {
      "bufferView": 2,
      "byteOffset": 271776,
      "componentType": 5126,
      "count": 1298,
      "max": [
        0.9990606904029846,
        0.9999165534973145,
        0.9998575448989868
      ],
      "min": [
        -0.9990606904029846,
        -0.9999163150787354,
        -0.9971613883972168
      ],
      "type": "VEC3"
    },
    {
      "bufferView": 3,
      "componentType": 5126,
      "count": 1298,
      "max": [
        1.0,
        0.9935692548751831,
        1.0,
        1.0
      ],
      "min": [
        -1.0,
        -0.9935692548751831,
        -1.0,
        -1.0
      ],
      "type": "VEC4"
    },
    {
      "bufferView": 1,
      "byteOffset": 85400,
      "componentType": 5126,
      "count": 1298,
      "max": [
        0.979023814201355,
        0.9992582201957703
      ],
      "min": [
        0.0007417593151330948,
        0.0007417593151330948
      ],
      "type": "VEC2"
    },
    {
      "bufferView": 0,
      "byteOffset": 154584,
      "componentType": 5125,
      "count": 4608,
      "type": "SCALAR"
    },
    {
      "bufferView": 2,
      "byteOffset": 287352,
      "componentType": 5126,
      "count": 416,
      "max": [
        0.22905239462852478,
        0.22606077790260315,
        0.4448942542076111
      ],
      "min": [
        -0.22905239462852478,
        -0.22925765812397003,
        0.048440635204315186
      ],
      "type": "VEC3"
    },
    {
      "bufferView": 2,
      "byteOffset": 292344,
      "componentType": 5126,
      "count": 416,
      "max": [
        0.9989234209060669,
        0.9999999403953552,
        0.9863183498382568
      ],
      "min": [
        -0.9989234209060669,
        -0.95183265209198,
        -0.981508731842041
      ],
      "type": "VEC3"
    },
    {
      "bufferView": 3,
      "byteOffset": 20768,
      "componentType": 5126,
      "count": 416,
      "max": [
        0.9982117414474487,
        0.9993659853935242,
        0.9999998807907104,
        1.0
      ],
      "min": [
        -0.998211681842804,
        -0.9998198747634888,
        -0.9931562542915344,
        -1.0
      ],
      "type": "VEC4"
    },
    {
      "bufferView": 1,
      "byteOffset": 95784,
      "componentType": 5126,
      "count": 416,
      "max": [
        0.393351674079895,
        0.918424129486084
      ],
      "min": [
        -0.0778689906001091,
        -0.7091641426086426
      ],
      "type": "VEC2"
    },
    {
      "bufferView": 1,
      "byteOffset": 99112,
      "componentType": 5126,
      "count": 416,
      "max": [
        0.393351674079895,
        0.918424129486084
      ],
      "min": [
        -0.0778689906001091,
        -0.7091641426086426
      ],
      "type": "VEC2"
    },
    {
      "bufferView": 0,
      "byteOffset": 173016,
      "componentType": 5125,
      "count": 1122,
      "type": "SCALAR"
    }
  ],
  "asset": {
    "extras": {
      "author": "LordDiego (https://sketchfab.com/LordDiego)",
      "license": "CC-BY-4.0 (http://creativecommons.org/licenses/by/4.0/)",
      "source": "https://sketchfab.com/3d-models/kevin-the-minion-3december2020-day20-9e261fd1403a43aa988249fcb87dd46a",
      "title": "Kevin The Minion - #3December2020 Day20"
    },
    "generator": "Sketchfab-12.66.0",
    "version": "2.0"
  },
  "bufferViews": [
    {
      "buffer": 0,
      "byteLength": 177504,
      "name": "floatBufferViews",
      "target": 34963
    },
    {
      "buffer": 0,
      "byteLength": 102440,
      "byteOffset": 177504,
      "byteStride": 8,
      "name": "floatBufferViews",
      "target": 34962
    },
    {
      "buffer": 0,
      "byteLength": 297336,
      "byteOffset": 279944,
      "byteStride": 12,
      "name": "floatBufferViews",
      "target": 34962
    },
    {
      "buffer": 0,
      "byteLength": 27424,
      "byteOffset": 577280,
      "byteStride": 16,
      "name": "floatBufferViews",
      "target": 34962
    }
  ],
  "buffers": [
    {
      "byteLength": 604704,
      "uri": "kevin.bin"
    }
  ],
  "images": [
    {
      "uri": "textures/Minion_Skin_baseColor.png"
    },
    {
      "uri": "textures/Minion_Eyes_baseColor.png"
    },
    {
      "uri": "textures/Minion_Pants_baseColor.png"
    },
    {
      "uri": "textures/Minion_Pants_normal.png"
    },
    {
      "uri": "textures/Minion_Pants_2_baseColor.png"
    },
    {
      "uri": "textures/Minion_Pants_2_normal.png"
    }
  ],
  "materials": [
    {
      "doubleSided": true,
      "name": "Minion_Skin",
      "pbrMetallicRoughness": {
        "baseColorTexture": {
          "index": 0
        },
        "metallicFactor": 0.0,
        "roughnessFactor": 0.75
      }
    },
    {
      "doubleSided": true,
      "name": "Minion_Hair",
      "pbrMetallicRoughness": {
        "baseColorFactor": [
          0.0,
          0.0,
          0.0,
          1.0
        ],
        "metallicFactor": 0.0,
        "roughnessFactor": 0.2
      }
    },
    {
      "doubleSided": true,
      "name": "Minion_Glasses",
      "pbrMetallicRoughness": {
        "baseColorFactor": [
          0.8,
          0.8,
          0.8,
          1.0
        ],
        "roughnessFactor": 0.5
      }
    },
    {
      "doubleSided": true,
      "name": "Minion_Eyes",
      "pbrMetallicRoughness": {
        "baseColorTexture": {
          "index": 1
        },
        "metallicFactor": 0.0,
        "roughnessFactor": 0.1
      }
    },
    {
      "doubleSided": true,
      "name": "Minion_Gloves",
      "pbrMetallicRoughness": {
        "baseColorFactor": [
          0.0578054,
          0.0409152,
          0.0331048,
          1.0
        ],
        "metallicFactor": 0.0,
        "roughnessFactor": 0.45
      }
    },
    {
      "doubleSided": true,
      "name": "Minion_Pants",
      "normalTexture": {
        "index": 3
      },
      "pbrMetallicRoughness": {
        "baseColorTexture": {
          "index": 2
        },
        "metallicFactor": 0.0,
        "roughnessFactor": 0.8
      }
    },
    {
      "doubleSided": true,
      "name": "Minion_Pants_2",
      "normalTexture": {
        "index": 5
      },
      "pbrMetallicRoughness": {
        "baseColorTexture": {
          "index": 4
        },
        "metallicFactor": 0.0,
        "roughnessFactor": 0.8
      }
    }
  ],
  "meshes": [
    {
      "name": "Minion_Kevin_Body_Minion_Skin_0",
      "primitives": [
        {
          "attributes": {
            "NORMAL": 1,
            "POSITION": 0,
            "TEXCOORD_0": 2
          },
          "indices": 3,
          "material": 0,
          "mode": 4
        }
      ]
    },
    {
      "name": "Minion_Kevin_Body_Minion_Hair_0",
      "primitives": [
        {
          "attributes": {
            "NORMAL": 5,
            "POSITION": 4,
            "TEXCOORD_0": 6
          },
          "indices": 7,
          "material": 1,
          "mode": 4
        }
      ]
    },
    {
      "name": "Minion_Kevin_Body_Minion_Glasses_0",
      "primitives": [
        {
          "attributes": {
            "NORMAL": 9,
            "POSITION": 8,
            "TEXCOORD_0": 10
          },
          "indices": 11,
          "material": 2,
          "mode": 4
        }
      ]
    },
    {
      "name": "Minion_Kevin_Body_Minion_Eyes_0",
      "primitives": [
        {
          "attributes": {
            "NORMAL": 13,
            "POSITION": 12,
            "TEXCOORD_0": 14
          },
          "indices": 15,
          "material": 3,
          "mode": 4
        }
      ]
    },
    {
      "name": "Minion_Kevin_Body_Minion_Gloves_0",
      "primitives": [
        {
          "attributes": {
            "NORMAL": 17,
            "POSITION": 16,
            "TEXCOORD_0": 18
          },
          "indices": 19,
          "material": 4,
          "mode": 4
        }
      ]
    },
    {
      "name": "Minion_Kevin_Body_Minion_Pants_0",
      "primitives": [
        {
          "attributes": {
            "NORMAL": 21,
            "POSITION": 20,
            "TANGENT": 22,
            "TEXCOORD_0": 23
          },
          "indices": 24,
          "material": 5,
          "mode": 4
        }
      ]
    },
    {
      "name": "Minion_Kevin_Body_Minion_Pants_2_0",
      "primitives": [
        {
          "attributes": {
            "NORMAL": 26,
            "POSITION": 25,
            "TANGENT": 27,
            "TEXCOORD_0": 28,
            "TEXCOORD_1": 29
          },
          "indices": 30,
          "material": 6,
          "mode": 4
        }
      ]
    }
  ],
  "nodes": [
    {
      "children": [
        1
      ],
      "matrix": [
        1.0,
        0.0,
        0.0,
        0.0,
        0.0,
        2.220446049250313e-16,
        -1.0,
        0.0,
        0.0,
        1.0,
        2.220446049250313e-16,
        0.0,
        0.0,
        0.0,
        0.0,
        1.0
      ],
      "name": "Sketchfab_model"
    },
    {
      "children": [
        2
      ],
      "matrix": [
        1.0,
        0.0,
        0.0,
        0.0,
        0.0,
        0.0,
        1.0,
        0.0,
        0.0,
        -1.0,
        0.0,
        0.0,
        0.0,
        0.0,
        0.0,
        1.0
      ],
      "name": "42c4610732d04c4789970e11a46dfbb6.fbx"
    },
    {
      "children": [
        3
      ],
      "name": "RootNode"
    },
    {
      "children": [
        4,
        5,
        6,
        7,
        8,
        9,
        10
      ],
      "matrix": [
        100.0,
        0.0,
        0.0,
        0.0,
        0.0,
        -1.629206793918314e-05,
        -99.99999999999868,
        0.0,
        0.0,
        99.99999999999868,
        -1.629206793918314e-05,
        0.0,
        0.0,
        0.0,
        0.0,
        1.0
      ],
      "name": "Minion_Kevin_Body"
    },
    {
      "mesh": 0,
      "name": "Minion_Kevin_Body_Minion_Skin_0"
    },
    {
      "mesh": 1,
      "name": "Minion_Kevin_Body_Minion_Hair_0"
    },
    {
      "mesh": 2,
      "name": "Minion_Kevin_Body_Minion_Glasses_0"
    },
    {
      "mesh": 3,
      "name": "Minion_Kevin_Body_Minion_Eyes_0"
    },
    {
      "mesh": 4,
      "name": "Minion_Kevin_Body_Minion_Gloves_0"
    },
    {
      "mesh": 5,
      "name": "Minion_Kevin_Body_Minion_Pants_0"
    },
    {
      "mesh": 6,
      "name": "Minion_Kevin_Body_Minion_Pants_2_0"
    }
  ],
  "samplers": [
    {
      "magFilter": 9729,
      "minFilter": 9987,
      "wrapS": 10497,
      "wrapT": 10497
    }
  ],
  "scene": 0,
  "scenes": [
    {
      "name": "Sketchfab_Scene",
      "nodes": [
        0
      ]
    }
  ],
  "textures": [
    {
      "sampler": 0,
      "source": 0
    },
    {
      "sampler": 0,
      "source": 1
    },
    {
      "sampler": 0,
      "source": 2
    },
    {
      "sampler": 0,
      "source": 3
    },
    {
      "sampler": 0,
      "source": 4
    },
    {
      "sampler": 0,
      "source": 5
    }
  ]
}
