{
  "accessors": [
    {
      "bufferView": 1,
      "componentType": 5126,
      "count": 3590,
      "max": [
        43.150001525878906,
        -19.343399047851563,
        9.734100341796875
      ],
      "min": [
        26.75,
        -27.163000106811523,
        3.311000108718872
      ],
      "type": "VEC3"
    },
    {
      "bufferView": 1,
      "byteOffset": 43080,
      "componentType": 5126,
      "count": 3590,
      "max": [
        1.0,
        0.9975875616073608,
        0.8981654644012451
      ],
      "min": [
        -0.9999961256980896,
        -1.0,
        -0.977108895778656
      ],
      "type": "VEC3"
    },
    {
      "bufferView": 0,
      "componentType": 5125,
      "count": 12135,
      "type": "SCALAR"
    },
    {
      "bufferView": 1,
      "byteOffset": 86160,
      "componentType": 5126,
      "count": 10928,
      "max": [
        143.42999267578125,
        75.01000213623047,
        87.56800079345703
      ],
      "min": [
        -71.13999938964844,
        -76.13600158691406,
        11.329999923706055
      ],
      "type": "VEC3"
    },
    {
      "bufferView": 1,
      "byteOffset": 217296,
      "componentType": 5126,
      "count": 10928,
      "max": [
        0.9997566342353821,
        1.0,
        1.0
      ],
      "min": [
        -0.9999531507492065,
        -0.9998879432678223,
        -0.9999818205833435
      ],
      "type": "VEC3"
    },
    {
      "bufferView": 0,
      "byteOffset": 48540,
      "componentType": 5125,
      "count": 63870,
      "type": "SCALAR"
    },
    {
      "bufferView": 1,
      "byteOffset": 348432,
      "componentType": 5126,
      "count": 15889,
      "max": [
        150.0,
        73.3010025024414,
        110.03500366210938
      ],
      "min": [
        -95.04299926757813,
        -98.41699981689453,
        11.329999923706055
      ],
      "type": "VEC3"
    },
    {
      "bufferView": 1,
      "byteOffset": 539100,
      "componentType": 5126,
      "count": 15889,
      "max": [
        0.9999703764915466,
        1.0,
        0.9999141097068787
      ],
      "min": [
        -0.9999695420265198,
        -0.999961256980896,
        -0.9999966025352478
      ],
      "type": "VEC3"
    },
    {
      "bufferView": 0,
      "byteOffset": 304020,
      "componentType": 5125,
      "count": 93315,
      "type": "SCALAR"
    },
    {
      "bufferView": 1,
      "byteOffset": 729768,
      "componentType": 5126,
      "count": 596,
      "max": [
        39.77640151977539,
        -12.439499855041504,
        6.436399936676025
      ],
      "min": [
        30.223499298095703,
        -15.406900405883789,
        3.401400089263916
      ],
      "type": "VEC3"
    },
    {
      "bufferView": 1,
      "byteOffset": 736920,
      "componentType": 5126,
      "count": 596,
      "max": [
        0.5540775656700134,
        0.9997525215148926,
        0.15888145565986633
      ],
      "min": [
        -0.5548155903816223,
        -0.9988994002342224,
        -0.9067960381507874
      ],
      "type": "VEC3"
    },
    {
      "bufferView": 0,
      "byteOffset": 677280,
      "componentType": 5125,
      "count": 2130,
      "type": "SCALAR"
    },
    {
      "bufferView": 1,
      "byteOffset": 744072,
      "componentType": 5126,
      "count": 15970,
      "max": [
        113.72000122070313,
        86.2030029296875,
        116.9729995727539
      ],
      "min": [
        -64.6500015258789,
        -78.70700073242188,
        11.329999923706055
      ],
      "type": "VEC3"
    },
    {
      "bufferView": 1,
      "byteOffset": 935712,
      "componentType": 5126,
      "count": 15970,
      "max": [
        0.9999602437019348,
        0.9999952912330627,
        1.0
      ],
      "min": [
        -0.9999602437019348,
        -1.0,
        -0.9999442100524902
      ],
      "type": "VEC3"
    },
    {
      "bufferView": 0,
      "byteOffset": 685800,
      "componentType": 5125,
      "count": 93468,
      "type": "SCALAR"
    },
    {
      "bufferView": 1,
      "byteOffset": 1127352,
      "componentType": 5126,
      "count": 12154,
      "max": [
        41.6693000793457,
        -12.709699630737305,
        6.862100124359131
      ],
      "min": [
        28.186199188232422,
        -25.86669921875,
        2.0699000358581543
      ],
      "type": "VEC3"
    },
    {
      "bufferView": 1,
      "byteOffset": 1273200,
      "componentType": 5126,
      "count": 12154,
      "max": [
        0.9969401955604553,
        0.9999978542327881,
        0.9994552731513977
      ],
      "min": [
        -0.9999986886978149,
        -0.9999489188194275,
        -0.9999977350234985
      ],
      "type": "VEC3"
    },
    {
      "bufferView": 0,
      "byteOffset": 1059672,
      "componentType": 5125,
      "count": 59076,
      "type": "SCALAR"
    },
    {
      "bufferView": 1,
      "byteOffset": 1419048,
      "componentType": 5126,
      "count": 14274,
      "max": [
        149.5959930419922,
        95.04299926757813,
        104.5999984741211
      ],
      "min": [
        -81.27999877929688,
        -81.93699645996094,
        11.329999923706055
      ],
      "type": "VEC3"
    },
    {
      "bufferView": 1,
      "byteOffset": 1590336,
      "componentType": 5126,
      "count": 14274,
      "max": [
        0.9999955892562866,
        0.9999271631240845,
        1.0
      ],
      "min": [
        -0.9999994039535522,
        -0.9999999403953552,
        -0.9999500513076782
      ],
      "type": "VEC3"
    },
    {
      "bufferView": 0,
      "byteOffset": 1295976,
      "componentType": 5125,
      "count": 83472,
      "type": "SCALAR"
    },
    {
      "bufferView": 1,
      "byteOffset": 1761624,
      "componentType": 5126,
      "count": 23394,
      "max": [
        51.264801025390625,
        -4.8979997634887695,
        25.16900062561035
      ],
      "min": [
        18.93400001525879,
        -30.386999130249023,
        -2.8429999351501465
      ],
      "type": "VEC3"
    },
    {
      "bufferView": 1,
      "byteOffset": 2042352,
      "componentType": 5126,
      "count": 23394,
      "max": [
        1.0,
        0.9998939037322998,
        0.9995845556259155
      ],
      "min": [
        -1.0,
        -0.9999999403953552,
        -0.9999567866325378
      ],
      "type": "VEC3"
    },
    {
      "bufferView": 0,
      "byteOffset": 1629864,
      "componentType": 5125,
      "count": 104055,
      "type": "SCALAR"
    },
    {
      "bufferView": 1,
      "byteOffset": 2323080,
      "componentType": 5126,
      "count": 923,
      "max": [
        37.404998779296875,
        -5.75,
        4.4380998611450195
      ],
      "min": [
        31.01799964904785,
        -24.773700714111328,
        -0.03550000116229057
      ],
      "type": "VEC3"
    },
    {
      "bufferView": 1,
      "byteOffset": 2334156,
      "componentType": 5126,
      "count": 923,
      "max": [
        1.0,
        1.0,
        0.0005739109474234283
      ],
      "min": [
        -0.9998903870582581,
        -1.0,
        -0.9995318651199341
      ],
      "type": "VEC3"
    },
    {
      "bufferView": 0,
      "byteOffset": 2046084,
      "componentType": 5125,
      "count": 2700,
      "type": "SCALAR"
    },
    {
      "bufferView": 1,
      "byteOffset": 2345232,
      "componentType": 5126,
      "count": 14290,
      "max": [
        45.47999954223633,
        5.204400062561035,
        21.999900817871094
      ],
      "min": [
        24.5,
        -17.996400833129883,
        0.01769999973475933
      ],
      "type": "VEC3"
    },
    {
      "bufferView": 1,
      "byteOffset": 2516712,
      "componentType": 5126,
      "count": 14290,
      "max": [
        1.0,
        1.0,
        0.9999999403953552
      ],
      "min": [
        -1.0,
        -0.9999938607215881,
        -0.9999184012413025
      ],
      "type": "VEC3"
    },
    {
      "bufferView": 0,
      "byteOffset": 2056884,
      "componentType": 5125,
      "count": 56892,
      "type": "SCALAR"
    },
    {
      "bufferView": 1,
      "byteOffset": 2688192,
      "componentType": 5126,
      "count": 34838,
      "max": [
        54.1510009765625,
        8.813799858093262,
        24.799999237060547
      ],
      "min": [
        17.610000610351563,
        -27.839599609375,
        -2.661799907684326
      ],
      "type": "VEC3"
    },
    {
      "bufferView": 1,
      "byteOffset": 3106248,
      "componentType": 5126,
      "count": 34838,
      "max": [
        1.0,
        0.9999908804893494,
        1.0
      ],
      "min": [
        -1.0,
        -0.9999860525131226,
        -0.9999423027038574
      ],
      "type": "VEC3"
    },
    {
      "bufferView": 0,
      "byteOffset": 2284452,
      "componentType": 5125,
      "count": 161313,
      "type": "SCALAR"
    },
    {
      "bufferView": 1,
      "byteOffset": 3524304,
      "componentType": 5126,
      "count": 172,
      "max": [
        21.670000076293945,
        -29.51219940185547,
        14.090999603271484
      ],
      "min": [
        20.424999237060547,
        -31.73900032043457,
        10.89009952545166
      ],
      "type": "VEC3"
    },
    {
      "bufferView": 1,
      "byteOffset": 3526368,
      "componentType": 5126,
      "count": 172,
      "max": [
        0.891685962677002,
        0.9626938104629517,
        0.8033038973808289
      ],
      "min": [
        -0.9869286417961121,
        -0.7674229741096497,
        -0.4373878538608551
      ],
      "type": "VEC3"
    },
    {
      "bufferView": 0,
      "byteOffset": 2929704,
      "componentType": 5125,
      "count": 471,
      "type": "SCALAR"
    },
    {
      "bufferView": 1,
      "byteOffset": 3528432,
      "componentType": 5126,
      "count": 2026,
      "max": [
        37.87200164794922,
        -22.87579917907715,
        4.8429999351501465
      ],
      "min": [
        30.91200065612793,
        -24.96150016784668,
        3.6117000579833984
      ],
      "type": "VEC3"
    },
    {
      "bufferView": 1,
      "byteOffset": 3552744,
      "componentType": 5126,
      "count": 2026,
      "max": [
        0.999987781047821,
        0.9535036683082581,
        0.9036181569099426
      ],
      "min": [
        -0.9999913573265076,
        -0.9532535076141357,
        -0.9822052717208862
      ],
      "type": "VEC3"
    },
    {
      "bufferView": 0,
      "byteOffset": 2931588,
      "componentType": 5125,
      "count": 6225,
      "type": "SCALAR"
    },
    {
      "bufferView": 1,
      "byteOffset": 3577056,
      "componentType": 5126,
      "count": 3165,
      "max": [
        42.06840133666992,
        -12.439499855041504,
        6.695799827575684
      ],
      "min": [
        27.93160057067871,
        -18.842199325561523,
        1.8966000080108643
      ],
      "type": "VEC3"
    },
    {
      "bufferView": 1,
      "byteOffset": 3615036,
      "componentType": 5126,
      "count": 3165,
      "max": [
        0.9999060034751892,
        0.9996845722198486,
        0.6676301956176758
      ],
      "min": [
        -0.999710738658905,
        -1.0,
        -0.9983251690864563
      ],
      "type": "VEC3"
    },
    {
      "bufferView": 0,
      "byteOffset": 2956488,
      "componentType": 5125,
      "count": 9399,
      "type": "SCALAR"
    }
  ],
  "asset": {
    "extras": {
      "author": "Gulugulu (https://sketchfab.com/GuluBuddy)",
      "license": "CC-BY-4.0 (http://creativecommons.org/licenses/by/4.0/)",
      "source": "https://sketchfab.com/3d-models/minion-ae3074a4682649e1a05dd391087a5bdb",
      "title": "Minion"
    },
    "generator": "Sketchfab-16.23.0",
    "version": "2.0"
  },
  "bufferViews": [
    {
      "buffer": 0,
      "byteLength": 2994084,
      "name": "floatBufferViews",
      "target": 34963
    },
    {
      "buffer": 0,
      "byteLength": 3653016,
      "byteOffset": 2994084,
      "byteStride": 12,
      "name": "floatBufferViews",
      "target": 34962
    }
  ],
  "buffers": [
    {
      "byteLength": 6647100,
      "uri": "minion_banana.bin"
    }
  ],
  "materials": [
    {
      "doubleSided": true,
      "name": "color_10988977",
      "pbrMetallicRoughness": {
        "roughnessFactor": 0.19999999999999996
      }
    },
    {
      "doubleSided": true,
      "name": "color_13165757",
      "pbrMetallicRoughness": {
        "baseColorFactor": [
          1.0,
          0.3581108469719256,
          0.3581108469719256,
          1.0
        ],
        "metallicFactor": 0.0,
        "roughnessFactor": 0.6
      }
    },
    {
      "doubleSided": true,
      "name": "color_13877221",
      "pbrMetallicRoughness": {
        "baseColorFactor": [
          0.41405187024361567,
          1.0,
          0.3980456015407229,
          1.0
        ],
        "metallicFactor": 0.0,
        "roughnessFactor": 0.6
      }
    },
    {
      "doubleSided": true,
      "name": "color_15277357",
      "pbrMetallicRoughness": {
        "baseColorFactor": [
          0.3921895658718546,
          0.05854903654326218,
          0.05854903654326218,
          1.0
        ],
        "metallicFactor": 0.0,
        "roughnessFactor": 0.5
      }
    },
    {
      "doubleSided": true,
      "name": "color_15708628",
      "pbrMetallicRoughness": {
        "baseColorFactor": [
          0.7619164289116714,
          0.38638409712110955,
          1.0,
          1.0
        ],
        "metallicFactor": 0.0,
        "roughnessFactor": 0.6
      }
    },
    {
      "doubleSided": true,
      "name": "color_16448250",
      "pbrMetallicRoughness": {
        "baseColorFactor": [
          0.8193024440314856,
          0.8193024440314856,
          0.8193024440314856,
          1.0
        ],
        "metallicFactor": 0.0,
        "roughnessFactor": 0.0
      }
    },
    {
      "doubleSided": true,
      "name": "color_16500122",
      "pbrMetallicRoughness": {
        "baseColorFactor": [
          1.0,
          0.5337851497490274,
          0.19802327142925605,
          1.0
        ],
        "metallicFactor": 0.0,
        "roughnessFactor": 0.6
      }
    },
    {
      "doubleSided": true,
      "name": "color_16768282",
      "pbrMetallicRoughness": {
        "baseColorFactor": [
          0.8193024440314856,
          0.554731215243534,
          0.009001781840123057,
          1.0
        ],
        "metallicFactor": 0.0,
        "roughnessFactor": 0.25
      }
    },
    {
      "doubleSided": true,
      "name": "color_2829873",
      "pbrMetallicRoughness": {
        "baseColorFactor": [
          0.0,
          0.0,
          0.0,
          1.0
        ],
        "metallicFactor": 0.0,
        "roughnessFactor": 0.6
      }
    },
    {
      "doubleSided": true,
      "name": "color_3888547",
      "pbrMetallicRoughness": {
        "baseColorFactor": [
          0.017715022126879153,
          0.10110248248492719,
          0.33638951952947194,
          1.0
        ],
        "metallicFactor": 0.0,
        "roughnessFactor": 0.7
      }
    },
    {
      "doubleSided": true,
      "name": "color_4271422",
      "pbrMetallicRoughness": {
        "baseColorFactor": [
          0.02797599805460656,
          0.033979995567170206,
          0.059214805978839095,
          1.0
        ],
        "metallicFactor": 0.3520010727651741,
        "roughnessFactor": 0.30000000000000004
      }
    },
    {
      "doubleSided": true,
      "name": "color_4596996",
      "pbrMetallicRoughness": {
        "baseColorFactor": [
          0.2482802702197364,
          0.09135229365200365,
          0.07133608109816855,
          1.0
        ],
        "metallicFactor": 0.0,
        "roughnessFactor": 0.6
      }
    },
    {
      "doubleSided": true,
      "name": "color_7752498",
      "pbrMetallicRoughness": {
        "baseColorFactor": [
          0.17534715041373466,
          0.06085580906823333,
          0.01720680165962751,
          1.0
        ],
        "metallicFactor": 0.0,
        "roughnessFactor": 0.6
      }
    },
    {
      "doubleSided": true,
      "name": "color_9771553",
      "pbrMetallicRoughness": {
        "baseColorFactor": [
          0.06518791730249957,
          0.019979914192390986,
          0.019979914192390986,
          1.0
        ],
        "metallicFactor": 0.0,
        "roughnessFactor": 0.6
      }
    }
  ],
  "meshes": [
    {
      "name": "Object_0",
      "primitives": [
        {
          "attributes": {
            "NORMAL": 1,
            "POSITION": 0
          },
          "indices": 2,
          "material": 0,
          "mode": 4
        }
      ]
    },
    {
      "name": "Object_1",
      "primitives": [
        {
          "attributes": {
            "NORMAL": 4,
            "POSITION": 3
          },
          "indices": 5,
          "material": 1,
          "mode": 4
        }
      ]
    },
    {
      "name": "Object_2",
      "primitives": [
        {
          "attributes": {
            "NORMAL": 7,
            "POSITION": 6
          },
          "indices": 8,
          "material": 2,
          "mode": 4
        }
      ]
    },
    {
      "name": "Object_3",
      "primitives": [
        {
          "attributes": {
            "NORMAL": 10,
            "POSITION": 9
          },
          "indices": 11,
          "material": 3,
          "mode": 4
        }
      ]
    },
    {
      "name": "Object_4",
      "primitives": [
        {
          "attributes": {
            "NORMAL": 13,
            "POSITION": 12
          },
          "indices": 14,
          "material": 4,
          "mode": 4
        }
      ]
    },
    {
      "name": "Object_5",
      "primitives": [
        {
          "attributes": {
            "NORMAL": 16,
            "POSITION": 15
          },
          "indices": 17,
          "material": 5,
          "mode": 4
        }
      ]
    },
    {
      "name": "Object_6",
      "primitives": [
        {
          "attributes": {
            "NORMAL": 19,
            "POSITION": 18
          },
          "indices": 20,
          "material": 6,
          "mode": 4
        }
      ]
    },
    {
      "name": "Object_7",
      "primitives": [
        {
          "attributes": {
            "NORMAL": 22,
            "POSITION": 21
          },
          "indices": 23,
          "material": 7,
          "mode": 4
        }
      ]
    },
    {
      "name": "Object_8",
      "primitives": [
        {
          "attributes": {
            "NORMAL": 25,
            "POSITION": 24
          },
          "indices": 26,
          "material": 8,
          "mode": 4
        }
      ]
    },
    {
      "name": "Object_9",
      "primitives": [
        {
          "attributes": {
            "NORMAL": 28,
            "POSITION": 27
          },
          "indices": 29,
          "material": 9,
          "mode": 4
        }
      ]
    },
    {
      "name": "Object_10",
      "primitives": [
        {
          "attributes": {
            "NORMAL": 31,
            "POSITION": 30
          },
          "indices": 32,
          "material": 10,
          "mode": 4
        }
      ]
    },
    {
      "name": "Object_11",
      "primitives": [
        {
          "attributes": {
            "NORMAL": 34,
            "POSITION": 33
          },
          "indices": 35,
          "material": 11,
          "mode": 4
        }
      ]
    },
    {
      "name": "Object_12",
      "primitives": [
        {
          "attributes": {
            "NORMAL": 37,
            "POSITION": 36
          },
          "indices": 38,
          "material": 12,
          "mode": 4
        }
      ]
    },
    {
      "name": "Object_13",
      "primitives": [
        {
          "attributes": {
            "NORMAL": 40,
            "POSITION": 39
          },
          "indices": 41,
          "material": 13,
          "mode": 4
        }
      ]
    }
  ],
  "nodes": [
    {
      "children": [
        1
      ],
      "matrix": [
        1.0,
        0.0,
        0.0,
        0.0,
        0.0,
        -1.0,
        -4.440892098500626e-16,
        0.0,
        0.0,
        4.440892098500626e-16,
        -1.0,
        0.0,
        0.0,
        0.0,
        0.0,
        1.0
      ],
      "name": "Sketchfab_model"
    },
    {
      "children": [
        2,
        3,
        4,
        5,
        6,
        7,
        8,
        9,
        10,
        11,
        12,
        13,
        14,
        15
      ],
      "name": "tinker.obj.cleaner.materialmerger.gles"
    },
    {
      "mesh": 0,
      "name": "Object_2"
    },
    {
      "mesh": 1,
      "name": "Object_3"
    },
    {
      "mesh": 2,
      "name": "Object_4"
    },
    {
      "mesh": 3,
      "name": "Object_5"
    },
    {
      "mesh": 4,
      "name": "Object_6"
    },
    {
      "mesh": 5,
      "name": "Object_7"
    },
    {
      "mesh": 6,
      "name": "Object_8"
    },
    {
      "mesh": 7,
      "name": "Object_9"
    },
    {
      "mesh": 8,
      "name": "Object_10"
    },
    {
      "mesh": 9,
      "name": "Object_11"
    },
    {
      "mesh": 10,
      "name": "Object_12"
    },
    {
      "mesh": 11,
      "name": "Object_13"
    },
    {
      "mesh": 12,
      "name": "Object_14"
    },
    {
      "mesh": 13,
      "name": "Object_15"
    }
  ],
  "scene": 0,
  "scenes": [
    {
      "name": "Sketchfab_Scene",
      "nodes": [
        0
      ]
    }
  ]
}
